PathFileType	4	(X/Y/Z)	8_coords_data.trc
DataRate	CameraRate	NumFrames	NumMarkers	Units	OrigDataRate	OrigDataStartFrame	OrigNumFrames
30.0	30.0	7	21	m	30.0	10	59
Frame#	Time	THUMB_TIP	THUMB_IP	THUMB_MCP	THUMB_CMC	INDEX_TIP	INDEX_DIP	INDEX_PIP	INDEX_MCP	MIDDLE_TIP	MIDDLE_DIP	MIDDLE_PIP	MIDDLE_MCP	RING_TIP	RING_DIP	RING_PIP	RING_MCP	PINKY_TIP	PINKY_DIP	PINKY_PIP	PINKY_MCP	WRIST
X1	Y1	Z1	X2	Y2	Z2	X3	Y3	Z3	X4	Y4	Z4	X5	Y5	Z5	X6	Y6	Z6	X7	Y7	Z7	X8	Y8	Z8	X9	Y9	Z9	X10	Y10	Z10	X11	Y11	Z11	X12	Y12	Z12	X13	Y13	Z13	X14	Y14	Z14	X15	Y15	Z15	X16	Y16	Z16	X17	Y17	Z17	X18	Y18	Z18	X19	Y19	Z19	X20	Y20	Z20	X21	Y21	Z21
8	0.2999999999999987	0.5487376373032183	-0.02616882163851808	-0.12392547724553304	0.5257957085663283	-0.02513579599563609	-0.12315038766838476	0.4955662280414368	-0.021310565266767	-0.11679695418198346	0.4766511494998382	-0.025656123746960247	-0.0766319703619895	0.5576984691218074	0.07483184577110114	-0.15201495230107948	0.5471893418242798	0.06186058480013684	-0.14499322656822028	0.531457096620751	0.04738191873355602	-0.13176921345613948	0.506803678344232	0.021787760721860006	-0.10830042275539518	0.5118249919325341	-0.015712211145099797	-0.10968206149161634	0.5277003416270621	-0.01774476508760814	-0.11815802730957703	0.5467994803950577	0.004269127700172626	-0.11801320794296224	0.5184253359559463	0.02304896745430257	-0.08905852840480043	0.5247465103218085	-0.023879696802279415	-0.10348641059953578	0.5418939220670488	-0.0196858320155463	-0.1071439738033368	0.5581062153252652	-0.001812256621416708	-0.10098955840137094	0.530089389430122	0.012462468084404321	-0.07557282109434696	0.6031896053761994	0.014602574588725936	-0.06653079977930812	0.5869205644300862	0.0093190745162538	-0.06716557035036394	0.5665671305723843	0.004178039968077751	-0.06751127683658145	0.5322453599139774	-0.006769798445387165	-0.06925608168079267	0.462283081001861	-0.023011742144276925	-0.051989820119430985
9	0.33333333333333187	0.5487001094357736	-0.026224639498077185	-0.12396978797939583	0.5257593051877241	-0.02517818897691204	-0.12317957170556823	0.49553211542627296	-0.02135215305562921	-0.11681573259271544	0.47663427672366854	-0.025673071468471087	-0.07663997676360979	0.5577545189272484	0.07471683267818008	-0.1520752168190372	0.5472277564805783	0.06176501681157992	-0.14504401932863348	0.5314758922414188	0.047316471820115225	-0.13181041990819176	0.5068021867400372	0.021753912784272966	-0.10832851354669369	0.5118111507187458	-0.01571672141344438	-0.10970469305149624	0.5276762181234429	-0.01778200212585368	-0.11819199249380241	0.5467897012967552	0.004219490567267559	-0.11805549979056071	0.5184343316694446	0.023012082201551654	-0.08909070333062283	0.524751735483796	-0.023949785131109125	-0.10349263616574937	0.5418853358701843	-0.01972747470240277	-0.10718205786070296	0.5581077448225268	-0.00186614186359213	-0.1010187619888348	0.5300970322253069	0.012426278997765716	-0.07560523173981629	0.6032232131666782	0.014466626637779645	-0.06669573495203107	0.5869461693478342	0.00920390730377696	-0.0672970915275726	0.5665845251897075	0.0040935753896752525	-0.06761327803193246	0.5322477640690961	-0.006817644202692041	-0.06929124518095983	0.4622830810018609	-0.023011742144276925	-0.051989820119430985
10	0.3666666666666651	0.5486600999047063	-0.02628625259345818	-0.12401109363230577	0.5257202231658229	-0.025214828365496045	-0.12322744490451311	0.49550036085636207	-0.021380622903995672	-0.11683379254641332	0.4766182790863148	-0.025681006260623196	-0.07664842591855628	0.5578060982856667	0.07461771970279707	-0.1521228269043368	0.5472642343179128	0.06168397701362621	-0.14508099446272865	0.5314970660364376	0.047254937007765174	-0.13184433922460637	0.5068019242014192	0.021717494090296885	-0.10835763930773055	0.511775489620182	-0.015716182744143326	-0.10972152555518082	0.5276345195733408	-0.017819764258613424	-0.11821070182598525	0.5467826676262562	0.00415168067141114	-0.1180941521347164	0.5184444492099326	0.022969086838895036	-0.08912868091264435	0.5247498540300157	-0.02397409427204189	-0.10350218635515512	0.5418806191060288	-0.019769532382937882	-0.10722489333142178	0.5581154120622636	-0.001922663616164555	-0.10105231268069223	0.5301054958367326	0.012383214060369796	-0.07564547716458025	0.6032633827857905	0.014309790254946497	-0.06686666869107558	0.5869745266057645	0.009080295786730752	-0.06743724029335654	0.5666048033919964	0.004000667975826544	-0.06772668199242615	0.532249073793278	-0.006862304900028482	-0.06932765514591196	0.4622830810018608	-0.023011742144276925	-0.051989820119430985
11	0.39999999999999825	0.5486353767000819	-0.026350532233707535	-0.12404814257995077	0.5256961308513604	-0.02526649421349736	-0.12326337416655922	0.4954826024735838	-0.021421416814184857	-0.11684635906929014	0.4765965144305203	-0.02569282266872508	-0.0766597845641715	0.557853098343725	0.07452085918574436	-0.1521708984804435	0.5473001503369955	0.06159917469941739	-0.14512353312854914	0.5315195265405268	0.047190484099915275	-0.13188074713759737	0.5068103894346094	0.021675859021624944	-0.10838396981398854	0.5117544686386409	-0.015721753436469754	-0.10975454106045514	0.5276087179063368	-0.017877064651591557	-0.11823967003553476	0.5467798571446398	0.004074339376087921	-0.11812639373979214	0.5184594398571271	0.02292257056910063	-0.08916355433209786	0.5246849496990428	-0.024048094477462034	-0.10351831380017049	0.5418154512528465	-0.019852453555673777	-0.1072522813643767	0.5580926776650169	-0.0020446793114431427	-0.1010785421575862	0.53011934836087	0.012337315377822233	-0.07567437103551052	0.6033062425497145	0.014132326788008243	-0.06700124077501862	0.5870079801125798	0.00893054435833085	-0.0675563093154562	0.5666269556348129	0.003894953265483836	-0.067818382935462	0.5322545012977135	-0.006923266009427276	-0.06936239250925094	0.4622830810018609	-0.023011742144276925	-0.051989820119430985
12	0.43333333333333146	0.548624759592566	-0.02639442073484266	-0.12407384818919577	0.5256867877453387	-0.02529361861616053	-0.12327529810853727	0.4954785351530454	-0.021420991368285902	-0.11685001729605786	0.47659006263825	-0.025687785549725395	-0.0766640735660538	0.5579213938950799	0.07445909541591361	-0.1521658872815527	0.5473577486688983	0.06154735323221716	-0.14511632606704283	0.531563965493609	0.04714702018481015	-0.13188013877100835	0.5068328513852675	0.021652242957240497	-0.10838493877022541	0.5117262150062826	-0.015737516615176306	-0.10976313727146363	0.5275869364675437	-0.017904440203584615	-0.11823319966145177	0.5467885725184634	0.004020346173827405	-0.11813089974514153	0.5184826322477403	0.022890463158947716	-0.08916815900193602	0.524632959538281	-0.02411590650419304	-0.1035418838081935	0.5417681152861057	-0.019915248051983525	-0.10724875662306982	0.5580877863238435	-0.0021450479801378153	-0.1010788047896593	0.530138546684957	0.012295699728267717	-0.07568144974567334	0.603365452513181	0.01393101056742907	-0.06711606880154922	0.5870551022983962	0.008764822719635967	-0.06764802649947929	0.5666599797995205	0.0037850981672740147	-0.06787898242267287	0.5322621351426992	-0.006960185544598763	-0.06936579509296728	0.4622830810018608	-0.023011742144276925	-0.051989820119430985
13	0.4666666666666647	0.5486229773076836	-0.026425923559010633	-0.12414777033002175	0.5256896661865286	-0.02528177451621516	-0.123279344174163	0.49548558981659196	-0.021392582679067296	-0.11684444266031728	0.47659918717182004	-0.025679547673809644	-0.0766596728305247	0.5580143222413048	0.07444471403056341	-0.15208259631776136	0.5474398020207115	0.061534063222926316	-0.14504735518276662	0.5316279363236381	0.047131403173074904	-0.13183531069048116	0.5068600259682121	0.021647061011814017	-0.10836756654594604	0.5117062929944651	-0.01579188513852514	-0.10975528026127883	0.5275752836084233	-0.017933215085667253	-0.11821635838120995	0.5467974613840101	0.0039736206874285696	-0.1181270388740823	0.5185098774990518	0.022864028631458755	-0.08915959151226657	0.52458936717788	-0.02412776907429981	-0.10349669926015721	0.5417280393249572	-0.019955762842930214	-0.10721963909856704	0.558087131035991	-0.0022138380831097093	-0.10107275344753544	0.5301570133378303	0.012264142392799049	-0.07567555988788982	0.603422401483385	0.013739655478655743	-0.06721688827203248	0.5871016724120264	0.008604723084203902	-0.06773290366300366	0.5666915893971147	0.0036849174022568487	-0.06792275196111056	0.5322723936542193	-0.006998575763957682	-0.06935989815398952	0.462283081001861	-0.023011742144276925	-0.051989820119430985
14	0.4999999999999978	0.5486235088231899	-0.026463212395592572	-0.12428979009675901	0.5256992726075309	-0.025255208744308644	-0.12327977964772624	0.49549691626020065	-0.021366498648864862	-0.11683651922597735	0.4766000879257245	-0.0256781900603803	-0.07665929687214608	0.5581358712586828	0.07446909079488712	-0.15191564026022292	0.5475367957079509	0.06156076970233315	-0.14491315184242465	0.5316899902349834	0.047146500448176754	-0.13175574209845867	0.5068702859797328	0.02164629993638295	-0.10836005556140205	0.5117205151923455	-0.01580765204843615	-0.10977883566187119	0.5275961203499291	-0.017922094227724505	-0.11823426558298983	0.5468157599336358	0.003986998665261532	-0.11815270040091144	0.5185201327496534	0.022842643404155205	-0.08917046334533374	0.5245949253480713	-0.024099253553420352	-0.10347737885035149	0.541730534057913	-0.01994599857495527	-0.10723522227804422	0.5581015939317296	-0.0022099222745876057	-0.10110334042371516	0.5301659689193335	0.012234946298168459	-0.0756933529958829	0.6034716552917613	0.013558725946487438	-0.06732444111459185	0.5871404219156794	0.008455289046500947	-0.06782017110541566	0.5667166652994825	0.003591160468597754	-0.06796996382880416	0.5322757595323644	-0.00702678958315095	-0.06937231814889061	0.4622830810018609	-0.023011742144276925	-0.051989820119430985
